# Tiled2Unity generated file. Do not modify by hand.
# Wavefront file for 'ZonaInicial_mesh_0006.obj'

# Vertices (Count = 16)
v -29 -28 0
v -30 -28 0
v -30 -27 0
v -29 -27 0
v -34 -28 0
v -35 -28 0
v -35 -27 0
v -34 -27 0
v -29 -32 0
v -30 -32 0
v -30 -31 0
v -29 -31 0
v -34 -32 0
v -35 -32 0
v -35 -31 0
v -34 -31 0

# Texture cooridinates (Count = 4)
vt 0.15625 0.8125
vt 0.1875 0.8125
vt 0.1875 0.84375
vt 0.15625 0.84375

# Normal
vn 0 0 -1

# Mesh description
g ZonaInicial_mesh_0006

# Faces
f 1/1/1 2/2/1 3/3/1 4/4/1
f 5/1/1 6/2/1 7/3/1 8/4/1
f 9/1/1 10/2/1 11/3/1 12/4/1
f 13/1/1 14/2/1 15/3/1 16/4/1

