# Tiled2Unity generated file. Do not modify by hand.
# Wavefront file for 'ZonaInicial_mesh_0008.obj'

# Vertices (Count = 464)
v -17 -20 0
v -18 -20 0
v -18 -19 0
v -17 -19 0
v -18 -20 0
v -19 -20 0
v -19 -19 0
v -18 -19 0
v -19 -20 0
v -20 -20 0
v -20 -19 0
v -19 -19 0
v -20 -20 0
v -21 -20 0
v -21 -19 0
v -20 -19 0
v -21 -20 0
v -22 -20 0
v -22 -19 0
v -21 -19 0
v -22 -20 0
v -23 -20 0
v -23 -19 0
v -22 -19 0
v -23 -20 0
v -24 -20 0
v -24 -19 0
v -23 -19 0
v -24 -20 0
v -25 -20 0
v -25 -19 0
v -24 -19 0
v -25 -20 0
v -26 -20 0
v -26 -19 0
v -25 -19 0
v -26 -20 0
v -27 -20 0
v -27 -19 0
v -26 -19 0
v -27 -20 0
v -28 -20 0
v -28 -19 0
v -27 -19 0
v -28 -20 0
v -29 -20 0
v -29 -19 0
v -28 -19 0
v -29 -20 0
v -30 -20 0
v -30 -19 0
v -29 -19 0
v -30 -20 0
v -31 -20 0
v -31 -19 0
v -30 -19 0
v -31 -20 0
v -32 -20 0
v -32 -19 0
v -31 -19 0
v -32 -20 0
v -33 -20 0
v -33 -19 0
v -32 -19 0
v -33 -20 0
v -34 -20 0
v -34 -19 0
v -33 -19 0
v -34 -20 0
v -35 -20 0
v -35 -19 0
v -34 -19 0
v -35 -20 0
v -36 -20 0
v -36 -19 0
v -35 -19 0
v -36 -20 0
v -37 -20 0
v -37 -19 0
v -36 -19 0
v -37 -20 0
v -38 -20 0
v -38 -19 0
v -37 -19 0
v -38 -20 0
v -39 -20 0
v -39 -19 0
v -38 -19 0
v -39 -20 0
v -40 -20 0
v -40 -19 0
v -39 -19 0
v -40 -20 0
v -41 -20 0
v -41 -19 0
v -40 -19 0
v -41 -20 0
v -42 -20 0
v -42 -19 0
v -41 -19 0
v -42 -20 0
v -43 -20 0
v -43 -19 0
v -42 -19 0
v -43 -20 0
v -44 -20 0
v -44 -19 0
v -43 -19 0
v -44 -20 0
v -45 -20 0
v -45 -19 0
v -44 -19 0
v -45 -20 0
v -46 -20 0
v -46 -19 0
v -45 -19 0
v -46 -20 0
v -47 -20 0
v -47 -19 0
v -46 -19 0
v -17 -21 0
v -18 -21 0
v -18 -20 0
v -17 -20 0
v -46 -21 0
v -47 -21 0
v -47 -20 0
v -46 -20 0
v -17 -22 0
v -18 -22 0
v -18 -21 0
v -17 -21 0
v -46 -22 0
v -47 -22 0
v -47 -21 0
v -46 -21 0
v -17 -23 0
v -18 -23 0
v -18 -22 0
v -17 -22 0
v -46 -23 0
v -47 -23 0
v -47 -22 0
v -46 -22 0
v -17 -24 0
v -18 -24 0
v -18 -23 0
v -17 -23 0
v -46 -24 0
v -47 -24 0
v -47 -23 0
v -46 -23 0
v -17 -25 0
v -18 -25 0
v -18 -24 0
v -17 -24 0
v -46 -25 0
v -47 -25 0
v -47 -24 0
v -46 -24 0
v -17 -26 0
v -18 -26 0
v -18 -25 0
v -17 -25 0
v -46 -26 0
v -47 -26 0
v -47 -25 0
v -46 -25 0
v -17 -27 0
v -18 -27 0
v -18 -26 0
v -17 -26 0
v -46 -27 0
v -47 -27 0
v -47 -26 0
v -46 -26 0
v -17 -28 0
v -18 -28 0
v -18 -27 0
v -17 -27 0
v -46 -28 0
v -47 -28 0
v -47 -27 0
v -46 -27 0
v -17 -29 0
v -18 -29 0
v -18 -28 0
v -17 -28 0
v -46 -29 0
v -47 -29 0
v -47 -28 0
v -46 -28 0
v -17 -30 0
v -18 -30 0
v -18 -29 0
v -17 -29 0
v -46 -30 0
v -47 -30 0
v -47 -29 0
v -46 -29 0
v -17 -31 0
v -18 -31 0
v -18 -30 0
v -17 -30 0
v -46 -31 0
v -47 -31 0
v -47 -30 0
v -46 -30 0
v -17 -32 0
v -18 -32 0
v -18 -31 0
v -17 -31 0
v -46 -32 0
v -47 -32 0
v -47 -31 0
v -46 -31 0
v -17 -33 0
v -18 -33 0
v -18 -32 0
v -17 -32 0
v -46 -33 0
v -47 -33 0
v -47 -32 0
v -46 -32 0
v -17 -34 0
v -18 -34 0
v -18 -33 0
v -17 -33 0
v -46 -34 0
v -47 -34 0
v -47 -33 0
v -46 -33 0
v -17 -35 0
v -18 -35 0
v -18 -34 0
v -17 -34 0
v -46 -35 0
v -47 -35 0
v -47 -34 0
v -46 -34 0
v -17 -36 0
v -18 -36 0
v -18 -35 0
v -17 -35 0
v -46 -36 0
v -47 -36 0
v -47 -35 0
v -46 -35 0
v -17 -37 0
v -18 -37 0
v -18 -36 0
v -17 -36 0
v -46 -37 0
v -47 -37 0
v -47 -36 0
v -46 -36 0
v -17 -38 0
v -18 -38 0
v -18 -37 0
v -17 -37 0
v -46 -38 0
v -47 -38 0
v -47 -37 0
v -46 -37 0
v -17 -39 0
v -18 -39 0
v -18 -38 0
v -17 -38 0
v -46 -39 0
v -47 -39 0
v -47 -38 0
v -46 -38 0
v -17 -40 0
v -18 -40 0
v -18 -39 0
v -17 -39 0
v -46 -40 0
v -47 -40 0
v -47 -39 0
v -46 -39 0
v -17 -41 0
v -18 -41 0
v -18 -40 0
v -17 -40 0
v -46 -41 0
v -47 -41 0
v -47 -40 0
v -46 -40 0
v -17 -42 0
v -18 -42 0
v -18 -41 0
v -17 -41 0
v -46 -42 0
v -47 -42 0
v -47 -41 0
v -46 -41 0
v -17 -43 0
v -18 -43 0
v -18 -42 0
v -17 -42 0
v -46 -43 0
v -47 -43 0
v -47 -42 0
v -46 -42 0
v -17 -44 0
v -18 -44 0
v -18 -43 0
v -17 -43 0
v -46 -44 0
v -47 -44 0
v -47 -43 0
v -46 -43 0
v -17 -45 0
v -18 -45 0
v -18 -44 0
v -17 -44 0
v -46 -45 0
v -47 -45 0
v -47 -44 0
v -46 -44 0
v -17 -46 0
v -18 -46 0
v -18 -45 0
v -17 -45 0
v -18 -46 0
v -19 -46 0
v -19 -45 0
v -18 -45 0
v -19 -46 0
v -20 -46 0
v -20 -45 0
v -19 -45 0
v -20 -46 0
v -21 -46 0
v -21 -45 0
v -20 -45 0
v -21 -46 0
v -22 -46 0
v -22 -45 0
v -21 -45 0
v -22 -46 0
v -23 -46 0
v -23 -45 0
v -22 -45 0
v -23 -46 0
v -24 -46 0
v -24 -45 0
v -23 -45 0
v -24 -46 0
v -25 -46 0
v -25 -45 0
v -24 -45 0
v -25 -46 0
v -26 -46 0
v -26 -45 0
v -25 -45 0
v -26 -46 0
v -27 -46 0
v -27 -45 0
v -26 -45 0
v -27 -46 0
v -28 -46 0
v -28 -45 0
v -27 -45 0
v -28 -46 0
v -29 -46 0
v -29 -45 0
v -28 -45 0
v -29 -46 0
v -30 -46 0
v -30 -45 0
v -29 -45 0
v -30 -46 0
v -31 -46 0
v -31 -45 0
v -30 -45 0
v -31 -46 0
v -32 -46 0
v -32 -45 0
v -31 -45 0
v -32 -46 0
v -33 -46 0
v -33 -45 0
v -32 -45 0
v -33 -46 0
v -34 -46 0
v -34 -45 0
v -33 -45 0
v -34 -46 0
v -35 -46 0
v -35 -45 0
v -34 -45 0
v -35 -46 0
v -36 -46 0
v -36 -45 0
v -35 -45 0
v -36 -46 0
v -37 -46 0
v -37 -45 0
v -36 -45 0
v -37 -46 0
v -38 -46 0
v -38 -45 0
v -37 -45 0
v -38 -46 0
v -39 -46 0
v -39 -45 0
v -38 -45 0
v -39 -46 0
v -40 -46 0
v -40 -45 0
v -39 -45 0
v -40 -46 0
v -41 -46 0
v -41 -45 0
v -40 -45 0
v -41 -46 0
v -42 -46 0
v -42 -45 0
v -41 -45 0
v -42 -46 0
v -43 -46 0
v -43 -45 0
v -42 -45 0
v -43 -46 0
v -44 -46 0
v -44 -45 0
v -43 -45 0
v -44 -46 0
v -45 -46 0
v -45 -45 0
v -44 -45 0
v -45 -46 0
v -46 -46 0
v -46 -45 0
v -45 -45 0
v -46 -46 0
v -47 -46 0
v -47 -45 0
v -46 -45 0
v -17 -47 0
v -18 -47 0
v -18 -46 0
v -17 -46 0
v -46 -47 0
v -47 -47 0
v -47 -46 0
v -46 -46 0
v -17 -48 0
v -18 -48 0
v -18 -47 0
v -17 -47 0
v -46 -48 0
v -47 -48 0
v -47 -47 0
v -46 -47 0
v -17 -49 0
v -18 -49 0
v -18 -48 0
v -17 -48 0
v -46 -49 0
v -47 -49 0
v -47 -48 0
v -46 -48 0

# Texture cooridinates (Count = 23)
vt 0.0625 0.75
vt 0.09375 0.75
vt 0.09375 0.78125
vt 0.0625 0.78125
vt 0.0625 0.96875
vt 0.09375 0.96875
vt 0.09375 1
vt 0.0625 1
vt 0.125 0.75
vt 0.125 0.78125
vt 0.0625 0.71875
vt 0.09375 0.71875
vt 0.125 0.71875
vt 0.03125 0.71875
vt 0.03125 0.75
vt 0 0.71875
vt 0 0.75
vt 0.0625 0.6875
vt 0.09375 0.6875
vt 0.125 0.6875
vt 0.0625 0.65625
vt 0.09375 0.65625
vt 0.125 0.65625

# Normal
vn 0 0 -1

# Mesh description
g ZonaInicial_mesh_0008

# Faces
f 1/1/1 2/2/1 3/3/1 4/4/1
f 5/5/1 6/6/1 7/7/1 8/8/1
f 9/5/1 10/6/1 11/7/1 12/8/1
f 13/5/1 14/6/1 15/7/1 16/8/1
f 17/5/1 18/6/1 19/7/1 20/8/1
f 21/5/1 22/6/1 23/7/1 24/8/1
f 25/5/1 26/6/1 27/7/1 28/8/1
f 29/5/1 30/6/1 31/7/1 32/8/1
f 33/5/1 34/6/1 35/7/1 36/8/1
f 37/5/1 38/6/1 39/7/1 40/8/1
f 41/5/1 42/6/1 43/7/1 44/8/1
f 45/5/1 46/6/1 47/7/1 48/8/1
f 49/5/1 50/6/1 51/7/1 52/8/1
f 53/5/1 54/6/1 55/7/1 56/8/1
f 57/5/1 58/6/1 59/7/1 60/8/1
f 61/5/1 62/6/1 63/7/1 64/8/1
f 65/5/1 66/6/1 67/7/1 68/8/1
f 69/5/1 70/6/1 71/7/1 72/8/1
f 73/5/1 74/6/1 75/7/1 76/8/1
f 77/5/1 78/6/1 79/7/1 80/8/1
f 81/5/1 82/6/1 83/7/1 84/8/1
f 85/5/1 86/6/1 87/7/1 88/8/1
f 89/5/1 90/6/1 91/7/1 92/8/1
f 93/5/1 94/6/1 95/7/1 96/8/1
f 97/5/1 98/6/1 99/7/1 100/8/1
f 101/5/1 102/6/1 103/7/1 104/8/1
f 105/5/1 106/6/1 107/7/1 108/8/1
f 109/5/1 110/6/1 111/7/1 112/8/1
f 113/5/1 114/6/1 115/7/1 116/8/1
f 117/2/1 118/9/1 119/10/1 120/3/1
f 121/11/1 122/12/1 123/2/1 124/1/1
f 125/12/1 126/13/1 127/9/1 128/2/1
f 129/11/1 130/12/1 131/2/1 132/1/1
f 133/12/1 134/13/1 135/9/1 136/2/1
f 137/11/1 138/12/1 139/2/1 140/1/1
f 141/12/1 142/13/1 143/9/1 144/2/1
f 145/14/1 146/11/1 147/1/1 148/15/1
f 149/16/1 150/14/1 151/15/1 152/17/1
f 153/14/1 154/11/1 155/1/1 156/15/1
f 157/16/1 158/14/1 159/15/1 160/17/1
f 161/14/1 162/11/1 163/1/1 164/15/1
f 165/16/1 166/14/1 167/15/1 168/17/1
f 169/14/1 170/11/1 171/1/1 172/15/1
f 173/16/1 174/14/1 175/15/1 176/17/1
f 177/14/1 178/11/1 179/1/1 180/15/1
f 181/16/1 182/14/1 183/15/1 184/17/1
f 185/14/1 186/11/1 187/1/1 188/15/1
f 189/16/1 190/14/1 191/15/1 192/17/1
f 193/14/1 194/11/1 195/1/1 196/15/1
f 197/16/1 198/14/1 199/15/1 200/17/1
f 201/14/1 202/11/1 203/1/1 204/15/1
f 205/16/1 206/14/1 207/15/1 208/17/1
f 209/14/1 210/11/1 211/1/1 212/15/1
f 213/16/1 214/14/1 215/15/1 216/17/1
f 217/14/1 218/11/1 219/1/1 220/15/1
f 221/16/1 222/14/1 223/15/1 224/17/1
f 225/14/1 226/11/1 227/1/1 228/15/1
f 229/16/1 230/14/1 231/15/1 232/17/1
f 233/14/1 234/11/1 235/1/1 236/15/1
f 237/16/1 238/14/1 239/15/1 240/17/1
f 241/14/1 242/11/1 243/1/1 244/15/1
f 245/16/1 246/14/1 247/15/1 248/17/1
f 249/14/1 250/11/1 251/1/1 252/15/1
f 253/16/1 254/14/1 255/15/1 256/17/1
f 257/14/1 258/11/1 259/1/1 260/15/1
f 261/16/1 262/14/1 263/15/1 264/17/1
f 265/14/1 266/11/1 267/1/1 268/15/1
f 269/16/1 270/14/1 271/15/1 272/17/1
f 273/14/1 274/11/1 275/1/1 276/15/1
f 277/16/1 278/14/1 279/15/1 280/17/1
f 281/14/1 282/11/1 283/1/1 284/15/1
f 285/16/1 286/14/1 287/15/1 288/17/1
f 289/14/1 290/11/1 291/1/1 292/15/1
f 293/16/1 294/14/1 295/15/1 296/17/1
f 297/14/1 298/11/1 299/1/1 300/15/1
f 301/16/1 302/14/1 303/15/1 304/17/1
f 305/14/1 306/11/1 307/1/1 308/15/1
f 309/16/1 310/14/1 311/15/1 312/17/1
f 313/14/1 314/11/1 315/1/1 316/15/1
f 317/16/1 318/14/1 319/15/1 320/17/1
f 321/18/1 322/19/1 323/12/1 324/11/1
f 325/5/1 326/6/1 327/7/1 328/8/1
f 329/5/1 330/6/1 331/7/1 332/8/1
f 333/5/1 334/6/1 335/7/1 336/8/1
f 337/5/1 338/6/1 339/7/1 340/8/1
f 341/5/1 342/6/1 343/7/1 344/8/1
f 345/5/1 346/6/1 347/7/1 348/8/1
f 349/5/1 350/6/1 351/7/1 352/8/1
f 353/5/1 354/6/1 355/7/1 356/8/1
f 357/5/1 358/6/1 359/7/1 360/8/1
f 361/5/1 362/6/1 363/7/1 364/8/1
f 365/5/1 366/6/1 367/7/1 368/8/1
f 369/5/1 370/6/1 371/7/1 372/8/1
f 373/5/1 374/6/1 375/7/1 376/8/1
f 377/5/1 378/6/1 379/7/1 380/8/1
f 381/5/1 382/6/1 383/7/1 384/8/1
f 385/5/1 386/6/1 387/7/1 388/8/1
f 389/5/1 390/6/1 391/7/1 392/8/1
f 393/5/1 394/6/1 395/7/1 396/8/1
f 397/5/1 398/6/1 399/7/1 400/8/1
f 401/5/1 402/6/1 403/7/1 404/8/1
f 405/5/1 406/6/1 407/7/1 408/8/1
f 409/5/1 410/6/1 411/7/1 412/8/1
f 413/5/1 414/6/1 415/7/1 416/8/1
f 417/5/1 418/6/1 419/7/1 420/8/1
f 421/5/1 422/6/1 423/7/1 424/8/1
f 425/5/1 426/6/1 427/7/1 428/8/1
f 429/5/1 430/6/1 431/7/1 432/8/1
f 433/5/1 434/6/1 435/7/1 436/8/1
f 437/19/1 438/20/1 439/13/1 440/12/1
f 441/21/1 442/22/1 443/19/1 444/18/1
f 445/22/1 446/23/1 447/20/1 448/19/1
f 449/21/1 450/22/1 451/19/1 452/18/1
f 453/22/1 454/23/1 455/20/1 456/19/1
f 457/21/1 458/22/1 459/19/1 460/18/1
f 461/22/1 462/23/1 463/20/1 464/19/1

