# Tiled2Unity generated file. Do not modify by hand.
# Wavefront file for 'Zona1-2_mesh_0004.obj'

# Vertices (Count = 544)
v -11 -6 0
v -12 -6 0
v -12 -5 0
v -11 -5 0
v -12 -6 0
v -13 -6 0
v -13 -5 0
v -12 -5 0
v -13 -6 0
v -14 -6 0
v -14 -5 0
v -13 -5 0
v -14 -6 0
v -15 -6 0
v -15 -5 0
v -14 -5 0
v -15 -6 0
v -16 -6 0
v -16 -5 0
v -15 -5 0
v -16 -6 0
v -17 -6 0
v -17 -5 0
v -16 -5 0
v -11 -7 0
v -12 -7 0
v -12 -6 0
v -11 -6 0
v -12 -7 0
v -13 -7 0
v -13 -6 0
v -12 -6 0
v -13 -7 0
v -14 -7 0
v -14 -6 0
v -13 -6 0
v -14 -7 0
v -15 -7 0
v -15 -6 0
v -14 -6 0
v -15 -7 0
v -16 -7 0
v -16 -6 0
v -15 -6 0
v -16 -7 0
v -17 -7 0
v -17 -6 0
v -16 -6 0
v -11 -8 0
v -12 -8 0
v -12 -7 0
v -11 -7 0
v -12 -8 0
v -13 -8 0
v -13 -7 0
v -12 -7 0
v -13 -8 0
v -14 -8 0
v -14 -7 0
v -13 -7 0
v -14 -8 0
v -15 -8 0
v -15 -7 0
v -14 -7 0
v -15 -8 0
v -16 -8 0
v -16 -7 0
v -15 -7 0
v -16 -8 0
v -17 -8 0
v -17 -7 0
v -16 -7 0
v -25 -8 0
v -26 -8 0
v -26 -7 0
v -25 -7 0
v -26 -8 0
v -27 -8 0
v -27 -7 0
v -26 -7 0
v -11 -9 0
v -12 -9 0
v -12 -8 0
v -11 -8 0
v -12 -9 0
v -13 -9 0
v -13 -8 0
v -12 -8 0
v -13 -9 0
v -14 -9 0
v -14 -8 0
v -13 -8 0
v -14 -9 0
v -15 -9 0
v -15 -8 0
v -14 -8 0
v -25 -9 0
v -26 -9 0
v -26 -8 0
v -25 -8 0
v -26 -9 0
v -27 -9 0
v -27 -8 0
v -26 -8 0
v -25 -10 0
v -26 -10 0
v -26 -9 0
v -25 -9 0
v -26 -10 0
v -27 -10 0
v -27 -9 0
v -26 -9 0
v -55 -21 0
v -56 -21 0
v -56 -20 0
v -55 -20 0
v -56 -21 0
v -57 -21 0
v -57 -20 0
v -56 -20 0
v -55 -22 0
v -56 -22 0
v -56 -21 0
v -55 -21 0
v -56 -22 0
v -57 -22 0
v -57 -21 0
v -56 -21 0
v -55 -23 0
v -56 -23 0
v -56 -22 0
v -55 -22 0
v -56 -23 0
v -57 -23 0
v -57 -22 0
v -56 -22 0
v -81 -26 0
v -82 -26 0
v -82 -25 0
v -81 -25 0
v -82 -26 0
v -83 -26 0
v -83 -25 0
v -82 -25 0
v -83 -26 0
v -84 -26 0
v -84 -25 0
v -83 -25 0
v -84 -26 0
v -85 -26 0
v -85 -25 0
v -84 -25 0
v -87 -26 0
v -88 -26 0
v -88 -25 0
v -87 -25 0
v -88 -26 0
v -89 -26 0
v -89 -25 0
v -88 -25 0
v -81 -27 0
v -82 -27 0
v -82 -26 0
v -81 -26 0
v -82 -27 0
v -83 -27 0
v -83 -26 0
v -82 -26 0
v -83 -27 0
v -84 -27 0
v -84 -26 0
v -83 -26 0
v -84 -27 0
v -85 -27 0
v -85 -26 0
v -84 -26 0
v -87 -27 0
v -88 -27 0
v -88 -26 0
v -87 -26 0
v -88 -27 0
v -89 -27 0
v -89 -26 0
v -88 -26 0
v -81 -28 0
v -82 -28 0
v -82 -27 0
v -81 -27 0
v -82 -28 0
v -83 -28 0
v -83 -27 0
v -82 -27 0
v -83 -28 0
v -84 -28 0
v -84 -27 0
v -83 -27 0
v -84 -28 0
v -85 -28 0
v -85 -27 0
v -84 -27 0
v -81 -29 0
v -82 -29 0
v -82 -28 0
v -81 -28 0
v -82 -29 0
v -83 -29 0
v -83 -28 0
v -82 -28 0
v -83 -29 0
v -84 -29 0
v -84 -28 0
v -83 -28 0
v -84 -29 0
v -85 -29 0
v -85 -28 0
v -84 -28 0
v -10 -30 0
v -11 -30 0
v -11 -29 0
v -10 -29 0
v -11 -30 0
v -12 -30 0
v -12 -29 0
v -11 -29 0
v -12 -30 0
v -13 -30 0
v -13 -29 0
v -12 -29 0
v -13 -30 0
v -14 -30 0
v -14 -29 0
v -13 -29 0
v -10 -31 0
v -11 -31 0
v -11 -30 0
v -10 -30 0
v -11 -31 0
v -12 -31 0
v -12 -30 0
v -11 -30 0
v -12 -31 0
v -13 -31 0
v -13 -30 0
v -12 -30 0
v -13 -31 0
v -14 -31 0
v -14 -30 0
v -13 -30 0
v -10 -32 0
v -11 -32 0
v -11 -31 0
v -10 -31 0
v -11 -32 0
v -12 -32 0
v -12 -31 0
v -11 -31 0
v -12 -32 0
v -13 -32 0
v -13 -31 0
v -12 -31 0
v -13 -32 0
v -14 -32 0
v -14 -31 0
v -13 -31 0
v -33 -33 0
v -34 -33 0
v -34 -32 0
v -33 -32 0
v -34 -33 0
v -35 -33 0
v -35 -32 0
v -34 -32 0
v -33 -34 0
v -34 -34 0
v -34 -33 0
v -33 -33 0
v -34 -34 0
v -35 -34 0
v -35 -33 0
v -34 -33 0
v -44 -34 0
v -45 -34 0
v -45 -33 0
v -44 -33 0
v -45 -34 0
v -46 -34 0
v -46 -33 0
v -45 -33 0
v -46 -34 0
v -47 -34 0
v -47 -33 0
v -46 -33 0
v -47 -34 0
v -48 -34 0
v -48 -33 0
v -47 -33 0
v -44 -35 0
v -45 -35 0
v -45 -34 0
v -44 -34 0
v -45 -35 0
v -46 -35 0
v -46 -34 0
v -45 -34 0
v -46 -35 0
v -47 -35 0
v -47 -34 0
v -46 -34 0
v -47 -35 0
v -48 -35 0
v -48 -34 0
v -47 -34 0
v -65 -38 0
v -66 -38 0
v -66 -37 0
v -65 -37 0
v -66 -38 0
v -67 -38 0
v -67 -37 0
v -66 -37 0
v -71 -38 0
v -72 -38 0
v -72 -37 0
v -71 -37 0
v -72 -38 0
v -73 -38 0
v -73 -37 0
v -72 -37 0
v -65 -39 0
v -66 -39 0
v -66 -38 0
v -65 -38 0
v -66 -39 0
v -67 -39 0
v -67 -38 0
v -66 -38 0
v -71 -39 0
v -72 -39 0
v -72 -38 0
v -71 -38 0
v -72 -39 0
v -73 -39 0
v -73 -38 0
v -72 -38 0
v -77 -43 0
v -78 -43 0
v -78 -42 0
v -77 -42 0
v -78 -43 0
v -79 -43 0
v -79 -42 0
v -78 -42 0
v -77 -44 0
v -78 -44 0
v -78 -43 0
v -77 -43 0
v -78 -44 0
v -79 -44 0
v -79 -43 0
v -78 -43 0
v -77 -45 0
v -78 -45 0
v -78 -44 0
v -77 -44 0
v -78 -45 0
v -79 -45 0
v -79 -44 0
v -78 -44 0
v -86 -45 0
v -87 -45 0
v -87 -44 0
v -86 -44 0
v -87 -45 0
v -88 -45 0
v -88 -44 0
v -87 -44 0
v -88 -45 0
v -89 -45 0
v -89 -44 0
v -88 -44 0
v -86 -46 0
v -87 -46 0
v -87 -45 0
v -86 -45 0
v -87 -46 0
v -88 -46 0
v -88 -45 0
v -87 -45 0
v -88 -46 0
v -89 -46 0
v -89 -45 0
v -88 -45 0
v -15 -47 0
v -16 -47 0
v -16 -46 0
v -15 -46 0
v -16 -47 0
v -17 -47 0
v -17 -46 0
v -16 -46 0
v -15 -48 0
v -16 -48 0
v -16 -47 0
v -15 -47 0
v -16 -48 0
v -17 -48 0
v -17 -47 0
v -16 -47 0
v -15 -49 0
v -16 -49 0
v -16 -48 0
v -15 -48 0
v -16 -49 0
v -17 -49 0
v -17 -48 0
v -16 -48 0
v -24 -58 0
v -25 -58 0
v -25 -57 0
v -24 -57 0
v -25 -58 0
v -26 -58 0
v -26 -57 0
v -25 -57 0
v -26 -58 0
v -27 -58 0
v -27 -57 0
v -26 -57 0
v -27 -58 0
v -28 -58 0
v -28 -57 0
v -27 -57 0
v -28 -58 0
v -29 -58 0
v -29 -57 0
v -28 -57 0
v -29 -58 0
v -30 -58 0
v -30 -57 0
v -29 -57 0
v -30 -58 0
v -31 -58 0
v -31 -57 0
v -30 -57 0
v -31 -58 0
v -32 -58 0
v -32 -57 0
v -31 -57 0
v -24 -59 0
v -25 -59 0
v -25 -58 0
v -24 -58 0
v -25 -59 0
v -26 -59 0
v -26 -58 0
v -25 -58 0
v -26 -59 0
v -27 -59 0
v -27 -58 0
v -26 -58 0
v -27 -59 0
v -28 -59 0
v -28 -58 0
v -27 -58 0
v -28 -59 0
v -29 -59 0
v -29 -58 0
v -28 -58 0
v -29 -59 0
v -30 -59 0
v -30 -58 0
v -29 -58 0
v -30 -59 0
v -31 -59 0
v -31 -58 0
v -30 -58 0
v -31 -59 0
v -32 -59 0
v -32 -58 0
v -31 -58 0
v -26 -60 0
v -27 -60 0
v -27 -59 0
v -26 -59 0
v -27 -60 0
v -28 -60 0
v -28 -59 0
v -27 -59 0
v -28 -60 0
v -29 -60 0
v -29 -59 0
v -28 -59 0
v -29 -60 0
v -30 -60 0
v -30 -59 0
v -29 -59 0
v -30 -60 0
v -31 -60 0
v -31 -59 0
v -30 -59 0
v -31 -60 0
v -32 -60 0
v -32 -59 0
v -31 -59 0
v -82 -60 0
v -83 -60 0
v -83 -59 0
v -82 -59 0
v -83 -60 0
v -84 -60 0
v -84 -59 0
v -83 -59 0
v -26 -61 0
v -27 -61 0
v -27 -60 0
v -26 -60 0
v -27 -61 0
v -28 -61 0
v -28 -60 0
v -27 -60 0
v -28 -61 0
v -29 -61 0
v -29 -60 0
v -28 -60 0
v -29 -61 0
v -30 -61 0
v -30 -60 0
v -29 -60 0
v -82 -61 0
v -83 -61 0
v -83 -60 0
v -82 -60 0
v -83 -61 0
v -84 -61 0
v -84 -60 0
v -83 -60 0
v -82 -62 0
v -83 -62 0
v -83 -61 0
v -82 -61 0
v -83 -62 0
v -84 -62 0
v -84 -61 0
v -83 -61 0

# Texture cooridinates (Count = 92)
vt 0 0.4821429
vt 0.125 0.4821429
vt 0.125 0.5
vt 0 0.5
vt 0.25 0.4821429
vt 0.25 0.5
vt 0.375 0.4821429
vt 0.375 0.5
vt 0.5 0.4821429
vt 0.5 0.5
vt 0.5 0.7678571
vt 0.625 0.7678571
vt 0.625 0.7857143
vt 0.5 0.7857143
vt 0.75 0.7678571
vt 0.75 0.7857143
vt 0 0.4642857
vt 0.125 0.4642857
vt 0.25 0.4642857
vt 0.375 0.4642857
vt 0.5 0.4642857
vt 0.5 0.75
vt 0.625 0.75
vt 0.75 0.75
vt 0 0.4464286
vt 0.125 0.4464286
vt 0.25 0.4464286
vt 0.375 0.4464286
vt 0.5 0.4464286
vt 0.5 0.7321429
vt 0.625 0.7321429
vt 0.75 0.7321429
vt 0.5 0.1071429
vt 0.625 0.1071429
vt 0.625 0.125
vt 0.5 0.125
vt 0.75 0.1071429
vt 0.75 0.125
vt 0 0.4285714
vt 0.125 0.4285714
vt 0.25 0.4285714
vt 0.375 0.4285714
vt 0.5 0.4285714
vt 0.5 0.08928573
vt 0.625 0.08928573
vt 0.75 0.08928573
vt 0.5 0.0714286
vt 0.625 0.0714286
vt 0.75 0.0714286
vt 0.75 0.2321429
vt 0.875 0.2321429
vt 0.875 0.25
vt 0.75 0.25
vt 1 0.2321429
vt 1 0.25
vt 0.75 0.2142857
vt 0.875 0.2142857
vt 1 0.2142857
vt 0.875 0.7678571
vt 0.875 0.7857143
vt 1 0.7678571
vt 1 0.7857143
vt 0.875 0.75
vt 1 0.75
vt 0.875 0.7321429
vt 1 0.7321429
vt 0.5 0.0535714
vt 0.625 0.0535714
vt 0.75 0.0535714
vt 0.5 0.03571427
vt 0.625 0.03571427
vt 0.75 0.03571427
vt 0 0.125
vt 0.125 0.125
vt 0.125 0.1428571
vt 0 0.1428571
vt 0.25 0.125
vt 0.25 0.1428571
vt 0.375 0.125
vt 0.375 0.1428571
vt 0 0.1071429
vt 0.125 0.1071429
vt 0.25 0.1071429
vt 0.375 0.1071429
vt 0.875 0.1071429
vt 0.875 0.125
vt 1 0.1071429
vt 1 0.125
vt 0.875 0.08928573
vt 1 0.08928573
vt 0.875 0.0714286
vt 1 0.0714286

# Normal
vn 0 0 -1

# Mesh description
g Zona1-2_mesh_0004

# Faces
f 1/1/1 2/2/1 3/3/1 4/4/1
f 5/2/1 6/5/1 7/6/1 8/3/1
f 9/5/1 10/7/1 11/8/1 12/6/1
f 13/7/1 14/9/1 15/10/1 16/8/1
f 17/11/1 18/12/1 19/13/1 20/14/1
f 21/12/1 22/15/1 23/16/1 24/13/1
f 25/17/1 26/18/1 27/2/1 28/1/1
f 29/18/1 30/19/1 31/5/1 32/2/1
f 33/19/1 34/20/1 35/7/1 36/5/1
f 37/20/1 38/21/1 39/9/1 40/7/1
f 41/22/1 42/23/1 43/12/1 44/11/1
f 45/23/1 46/24/1 47/15/1 48/12/1
f 49/25/1 50/26/1 51/18/1 52/17/1
f 53/26/1 54/27/1 55/19/1 56/18/1
f 57/27/1 58/28/1 59/20/1 60/19/1
f 61/28/1 62/29/1 63/21/1 64/20/1
f 65/30/1 66/31/1 67/23/1 68/22/1
f 69/31/1 70/32/1 71/24/1 72/23/1
f 73/33/1 74/34/1 75/35/1 76/36/1
f 77/34/1 78/37/1 79/38/1 80/35/1
f 81/39/1 82/40/1 83/26/1 84/25/1
f 85/40/1 86/41/1 87/27/1 88/26/1
f 89/41/1 90/42/1 91/28/1 92/27/1
f 93/42/1 94/43/1 95/29/1 96/28/1
f 97/44/1 98/45/1 99/34/1 100/33/1
f 101/45/1 102/46/1 103/37/1 104/34/1
f 105/47/1 106/48/1 107/45/1 108/44/1
f 109/48/1 110/49/1 111/46/1 112/45/1
f 113/11/1 114/12/1 115/13/1 116/14/1
f 117/12/1 118/15/1 119/16/1 120/13/1
f 121/22/1 122/23/1 123/12/1 124/11/1
f 125/23/1 126/24/1 127/15/1 128/12/1
f 129/30/1 130/31/1 131/23/1 132/22/1
f 133/31/1 134/32/1 135/24/1 136/23/1
f 137/1/1 138/2/1 139/3/1 140/4/1
f 141/2/1 142/5/1 143/6/1 144/3/1
f 145/5/1 146/7/1 147/8/1 148/6/1
f 149/7/1 150/9/1 151/10/1 152/8/1
f 153/50/1 154/51/1 155/52/1 156/53/1
f 157/51/1 158/54/1 159/55/1 160/52/1
f 161/17/1 162/18/1 163/2/1 164/1/1
f 165/18/1 166/19/1 167/5/1 168/2/1
f 169/19/1 170/20/1 171/7/1 172/5/1
f 173/20/1 174/21/1 175/9/1 176/7/1
f 177/56/1 178/57/1 179/51/1 180/50/1
f 181/57/1 182/58/1 183/54/1 184/51/1
f 185/25/1 186/26/1 187/18/1 188/17/1
f 189/26/1 190/27/1 191/19/1 192/18/1
f 193/27/1 194/28/1 195/20/1 196/19/1
f 197/28/1 198/29/1 199/21/1 200/20/1
f 201/39/1 202/40/1 203/26/1 204/25/1
f 205/40/1 206/41/1 207/27/1 208/26/1
f 209/41/1 210/42/1 211/28/1 212/27/1
f 213/42/1 214/43/1 215/29/1 216/28/1
f 217/11/1 218/12/1 219/13/1 220/14/1
f 221/12/1 222/15/1 223/16/1 224/13/1
f 225/15/1 226/59/1 227/60/1 228/16/1
f 229/59/1 230/61/1 231/62/1 232/60/1
f 233/22/1 234/23/1 235/12/1 236/11/1
f 237/23/1 238/24/1 239/15/1 240/12/1
f 241/24/1 242/63/1 243/59/1 244/15/1
f 245/63/1 246/64/1 247/61/1 248/59/1
f 249/30/1 250/31/1 251/23/1 252/22/1
f 253/31/1 254/32/1 255/24/1 256/23/1
f 257/32/1 258/65/1 259/63/1 260/24/1
f 261/65/1 262/66/1 263/64/1 264/63/1
f 265/50/1 266/51/1 267/52/1 268/53/1
f 269/51/1 270/54/1 271/55/1 272/52/1
f 273/56/1 274/57/1 275/51/1 276/50/1
f 277/57/1 278/58/1 279/54/1 280/51/1
f 281/67/1 282/68/1 283/48/1 284/47/1
f 285/68/1 286/69/1 287/49/1 288/48/1
f 289/67/1 290/68/1 291/48/1 292/47/1
f 293/68/1 294/69/1 295/49/1 296/48/1
f 297/70/1 298/71/1 299/68/1 300/67/1
f 301/71/1 302/72/1 303/69/1 304/68/1
f 305/70/1 306/71/1 307/68/1 308/67/1
f 309/71/1 310/72/1 311/69/1 312/68/1
f 313/50/1 314/51/1 315/52/1 316/53/1
f 317/51/1 318/54/1 319/55/1 320/52/1
f 321/50/1 322/51/1 323/52/1 324/53/1
f 325/51/1 326/54/1 327/55/1 328/52/1
f 329/56/1 330/57/1 331/51/1 332/50/1
f 333/57/1 334/58/1 335/54/1 336/51/1
f 337/56/1 338/57/1 339/51/1 340/50/1
f 341/57/1 342/58/1 343/54/1 344/51/1
f 345/33/1 346/34/1 347/35/1 348/36/1
f 349/34/1 350/37/1 351/38/1 352/35/1
f 353/44/1 354/45/1 355/34/1 356/33/1
f 357/45/1 358/46/1 359/37/1 360/34/1
f 361/47/1 362/48/1 363/45/1 364/44/1
f 365/48/1 366/49/1 367/46/1 368/45/1
f 369/73/1 370/74/1 371/75/1 372/76/1
f 373/74/1 374/77/1 375/78/1 376/75/1
f 377/77/1 378/79/1 379/80/1 380/78/1
f 381/81/1 382/82/1 383/74/1 384/73/1
f 385/82/1 386/83/1 387/77/1 388/74/1
f 389/83/1 390/84/1 391/79/1 392/77/1
f 393/33/1 394/34/1 395/35/1 396/36/1
f 397/34/1 398/37/1 399/38/1 400/35/1
f 401/44/1 402/45/1 403/34/1 404/33/1
f 405/45/1 406/46/1 407/37/1 408/34/1
f 409/47/1 410/48/1 411/45/1 412/44/1
f 413/48/1 414/49/1 415/46/1 416/45/1
f 417/50/1 418/51/1 419/52/1 420/53/1
f 421/51/1 422/54/1 423/55/1 424/52/1
f 425/1/1 426/2/1 427/3/1 428/4/1
f 429/2/1 430/5/1 431/6/1 432/3/1
f 433/5/1 434/7/1 435/8/1 436/6/1
f 437/7/1 438/9/1 439/10/1 440/8/1
f 441/11/1 442/12/1 443/13/1 444/14/1
f 445/12/1 446/15/1 447/16/1 448/13/1
f 449/56/1 450/57/1 451/51/1 452/50/1
f 453/57/1 454/58/1 455/54/1 456/51/1
f 457/17/1 458/18/1 459/2/1 460/1/1
f 461/18/1 462/19/1 463/5/1 464/2/1
f 465/19/1 466/20/1 467/7/1 468/5/1
f 469/20/1 470/21/1 471/9/1 472/7/1
f 473/22/1 474/23/1 475/12/1 476/11/1
f 477/23/1 478/24/1 479/15/1 480/12/1
f 481/25/1 482/26/1 483/18/1 484/17/1
f 485/26/1 486/27/1 487/19/1 488/18/1
f 489/27/1 490/28/1 491/20/1 492/19/1
f 493/28/1 494/29/1 495/21/1 496/20/1
f 497/30/1 498/31/1 499/23/1 500/22/1
f 501/31/1 502/32/1 503/24/1 504/23/1
f 505/37/1 506/85/1 507/86/1 508/38/1
f 509/85/1 510/87/1 511/88/1 512/86/1
f 513/39/1 514/40/1 515/26/1 516/25/1
f 517/40/1 518/41/1 519/27/1 520/26/1
f 521/41/1 522/42/1 523/28/1 524/27/1
f 525/42/1 526/43/1 527/29/1 528/28/1
f 529/46/1 530/89/1 531/85/1 532/37/1
f 533/89/1 534/90/1 535/87/1 536/85/1
f 537/49/1 538/91/1 539/89/1 540/46/1
f 541/91/1 542/92/1 543/90/1 544/89/1

